<?xml version="1.0" encoding="UTF-8" standalone="no"?>
<!-- Generator: Adobe Illustrator 16.0.0, SVG Export Plug-In . SVG Version: 6.00 Build 0)  -->

<svg
   xmlns:dc="http://purl.org/dc/elements/1.1/"
   xmlns:cc="http://creativecommons.org/ns#"
   xmlns:rdf="http://www.w3.org/1999/02/22-rdf-syntax-ns#"
   xmlns:svg="http://www.w3.org/2000/svg"
   xmlns="http://www.w3.org/2000/svg"
   xmlns:sodipodi="http://sodipodi.sourceforge.net/DTD/sodipodi-0.dtd"
   xmlns:inkscape="http://www.inkscape.org/namespaces/inkscape"
   version="1.1"
   id="Capa_1"
   x="0px"
   y="0px"
   width="520.071px"
   height="520.07px"
   viewBox="0 0 520.071 520.07"
   style="enable-background:new 0 0 520.071 520.07;"
   xml:space="preserve"
   inkscape:version="0.91 r13725"
   sodipodi:docname="cm-logo-tempo-2.svg"><metadata
     id="metadata49"><rdf:RDF><cc:Work
         rdf:about=""><dc:format>image/svg+xml</dc:format><dc:type
           rdf:resource="http://purl.org/dc/dcmitype/StillImage" /></cc:Work></rdf:RDF></metadata><defs
     id="defs47" /><sodipodi:namedview
     pagecolor="#ffffff"
     bordercolor="#666666"
     borderopacity="1"
     objecttolerance="10"
     gridtolerance="10"
     guidetolerance="10"
     inkscape:pageopacity="0"
     inkscape:pageshadow="2"
     inkscape:window-width="1920"
     inkscape:window-height="1137"
     id="namedview45"
     showgrid="false"
     inkscape:zoom="0.45378506"
     inkscape:cx="260.03549"
     inkscape:cy="260.035"
     inkscape:window-x="-8"
     inkscape:window-y="-8"
     inkscape:window-maximized="1"
     inkscape:current-layer="Capa_1" /><g
     id="g3"
     style="fill:#ee3e6e;fill-opacity:1"><g
       id="g5"
       style="fill:#ee3e6e;fill-opacity:1"><circle
         cx="98.16"
         cy="60.547"
         r="57.586"
         id="circle7"
         style="fill:#ee3e6e;fill-opacity:1" /><path
         d="M421.917,2.961c31.806,0,57.582,25.783,57.582,57.586s-25.776,57.585-57.582,57.585    c-31.807,0-57.589-25.783-57.589-57.585S390.11,2.961,421.917,2.961z"
         id="path9"
         style="fill:#ee3e6e;fill-opacity:1" /><path
         d="M465.129,112.109c-11.337,10.586-26.51,17.117-43.213,17.117c-16.71,0-31.877-6.537-43.214-17.117    c-24.554,6.481-44.083,25.318-51.583,49.414c-21.214-3.91-43.746-6.029-67.082-6.029c-23.338,0-45.867,2.119-67.081,6.029    c-7.498-24.096-27.036-42.933-51.58-49.414c-11.343,10.58-26.51,17.111-43.217,17.111c-16.704,0-31.874-6.531-43.213-17.111    C23.374,120.449,0,149.17,0,183.319v59.77l0.15,0.925l4.123,1.289c12.85,4.013,25.083,7.069,36.78,9.46    c-5.391,11.559-8.334,23.723-8.334,36.289c0,54.272,53.779,101.169,131.199,122.802c-2.858,7.838-4.445,16.278-4.445,25.098v59.77    l0.154,0.934l4.12,1.289c38.792,12.117,72.504,16.166,100.253,16.166c54.189,0,85.594-15.457,87.532-16.438l3.854-1.95h0.408    v-59.77c0-8.382-1.419-16.42-4.008-23.921c79.76-21.072,135.569-68.701,135.569-123.979c0-11.976-2.647-23.578-7.554-34.637    c22.26-4.604,34.803-10.767,36.003-11.378l3.859-1.954l0.408,0.006v-59.77C520.077,149.17,496.705,120.449,465.129,112.109z     M471.649,291.052c0,48.965-52.15,91.149-126.62,109.728c-9.806-16.054-25.534-28.117-44.171-33.029    c-11.343,10.58-26.516,17.105-43.217,17.105c-16.698,0-31.874-6.525-43.216-17.105c-18.223,4.812-33.683,16.443-43.524,31.965    C98.65,380.623,48.433,339.101,48.433,291.052c0-11.597,2.976-22.798,8.426-33.407c17.396,2.707,33.337,3.824,47.665,3.824    c54.187,0,85.597-15.451,87.532-16.432l3.854-1.954l0.414,0.006v-59.775c0-2.187-0.104-4.359-0.292-6.496    c20.206-3.644,41.704-5.621,64.007-5.621c22.308,0,43.811,1.977,64.014,5.621c-0.188,2.143-0.295,4.309-0.295,6.502v59.77    l0.153,0.931l4.126,1.289c38.786,12.111,72.501,16.16,100.24,16.16c13.312,0,25.222-0.928,35.684-2.358    C468.936,269.288,471.649,279.986,471.649,291.052z"
         id="path11"
         style="fill:#ee3e6e;fill-opacity:1" /><circle
         cx="257.641"
         cy="316.185"
         r="57.583"
         id="circle13"
         style="fill:#ee3e6e;fill-opacity:1" /></g></g><g
     id="g15" /><g
     id="g17" /><g
     id="g19" /><g
     id="g21" /><g
     id="g23" /><g
     id="g25" /><g
     id="g27" /><g
     id="g29" /><g
     id="g31" /><g
     id="g33" /><g
     id="g35" /><g
     id="g37" /><g
     id="g39" /><g
     id="g41" /><g
     id="g43" /></svg>